<svg xmlns="http://www.w3.org/2000/svg" style="display:none">
  <defs>
    <symbol id="icon-globe" viewBox="0 0 24 24" fill="none" stroke="currentColor" stroke-width="1.75" stroke-linecap="round" stroke-linejoin="round">
      <circle cx="12" cy="12" r="9" />
      <ellipse cx="12" cy="12" rx="4" ry="9" />
      <line x1="3" y1="12" x2="21" y2="12" />
      <path d="M4.5 7.5Q12 10.5 19.5 7.5" />
      <path d="M4.5 16.5Q12 13.5 19.5 16.5" />
    </symbol>

    <symbol id="icon-plane" viewBox="0 0 24 24" fill="none" stroke="currentColor" stroke-width="1.75" stroke-linecap="round" stroke-linejoin="round">
      <path d="M3 11L21 3L13 21L11 13L3 11Z" />
    </symbol>

    <symbol id="icon-pin" viewBox="0 0 24 24" fill="none" stroke="currentColor" stroke-width="1.75" stroke-linecap="round" stroke-linejoin="round">
      <path d="M12 21s7-7.5 7-12a7 7 0 1 0-14 0c0 4.5 7 12 7 12z" />
      <circle cx="12" cy="9" r="2.5" />
    </symbol>

    <symbol id="icon-gamepad" viewBox="0 0 24 24" fill="none" stroke="currentColor" stroke-width="1.75" stroke-linecap="round" stroke-linejoin="round">
      <rect x="2" y="7" width="20" height="11" rx="5.5" />
      <line x1="7" y1="10" x2="7" y2="14" />
      <line x1="5" y1="12" x2="9" y2="12" />
      <circle cx="16" cy="11" r="1" fill="currentColor" stroke="none" />
      <circle cx="18.2" cy="14" r="1" fill="currentColor" stroke="none" />
    </symbol>

    <symbol id="icon-grid" viewBox="0 0 24 24" fill="none" stroke="currentColor" stroke-width="1.75" stroke-linecap="round" stroke-linejoin="round">
      <rect x="3" y="3" width="8" height="8" rx="2" />
      <rect x="13" y="3" width="8" height="8" rx="2" />
      <rect x="3" y="13" width="8" height="8" rx="2" />
      <rect x="13" y="13" width="8" height="8" rx="2" />
    </symbol>

    <symbol id="icon-file-download" viewBox="0 0 24 24" fill="none" stroke="currentColor" stroke-width="1.75" stroke-linecap="round" stroke-linejoin="round">
      <path d="M14 2H6a2 2 0 0 0-2 2v16a2 2 0 0 0 2 2h12a2 2 0 0 0 2-2V8z" />
      <path d="M14 2v6h6" />
      <line x1="12" y1="11" x2="12" y2="17" />
      <polyline points="9 14 12 17 15 14" />
    </symbol>

    <symbol id="icon-bell" viewBox="0 0 24 24" fill="none" stroke="currentColor" stroke-width="1.75" stroke-linecap="round" stroke-linejoin="round">
      <path d="M6 8a6 6 0 0 1 12 0c0 7 3 9 3 9H3s3-2 3-9" />
      <path d="M10 21a2 2 0 0 0 4 0" />
    </symbol>

    <symbol id="icon-heart" viewBox="0 0 24 24" fill="currentColor" stroke="none">
      <path d="M12 21s-7.5-4.6-10-9.5C.5 8 2 4 6 4c2.4 0 4 1.5 6 4 2-2.5 3.6-4 6-4 4 0 5.5 4 4 7.5C19.5 16.4 12 21 12 21z" />
    </symbol>

    <symbol id="icon-check" viewBox="0 0 24 24" fill="none" stroke="currentColor" stroke-width="2" stroke-linecap="round" stroke-linejoin="round">
      <polyline points="4 12 9 17 20 6" />
    </symbol>

    <symbol id="icon-check-circle" viewBox="0 0 24 24" fill="none" stroke="currentColor" stroke-width="1.75" stroke-linecap="round" stroke-linejoin="round">
      <circle cx="12" cy="12" r="9" />
      <polyline points="8 12.5 11 15.5 16 9.5" />
    </symbol>

    <symbol id="icon-chevron-down" viewBox="0 0 24 24" fill="none" stroke="currentColor" stroke-width="2" stroke-linecap="round" stroke-linejoin="round">
      <polyline points="6 9 12 15 18 9" />
    </symbol>

    <symbol id="icon-menu" viewBox="0 0 24 24" fill="none" stroke="currentColor" stroke-width="1.75" stroke-linecap="round" stroke-linejoin="round">
      <line x1="3" y1="6" x2="21" y2="6" />
      <line x1="3" y1="12" x2="21" y2="12" />
      <line x1="3" y1="18" x2="21" y2="18" />
    </symbol>

    <symbol id="icon-x" viewBox="0 0 24 24" fill="none" stroke="currentColor" stroke-width="2" stroke-linecap="round" stroke-linejoin="round">
      <line x1="6" y1="6" x2="18" y2="18" />
      <line x1="6" y1="18" x2="18" y2="6" />
    </symbol>

    <symbol id="icon-shield" viewBox="0 0 24 24" fill="none" stroke="currentColor" stroke-width="1.75" stroke-linecap="round" stroke-linejoin="round">
      <path d="M12 2l8 4v6c0 5-3.5 8.5-8 10-4.5-1.5-8-5-8-10V6z" />
      <polyline points="9 12 11 14 15 10" />
    </symbol>

    <symbol id="icon-sparkle" viewBox="0 0 24 24" fill="currentColor" stroke="none">
      <path d="M12 2l1.8 5.2L19 9l-5.2 1.8L12 16l-1.8-5.2L6 9l5.2-1.8z" />
      <path d="M19 15l.7 2 2 .7-2 .7-.7 2-.7-2-2-.7 2-.7z" />
    </symbol>

    <symbol id="icon-arrow-right" viewBox="0 0 24 24" fill="none" stroke="currentColor" stroke-width="2" stroke-linecap="round" stroke-linejoin="round">
      <line x1="5" y1="12" x2="19" y2="12" />
      <polyline points="12 5 19 12 12 19" />
    </symbol>

    <symbol id="icon-lock" viewBox="0 0 24 24" fill="none" stroke="currentColor" stroke-width="1.75" stroke-linecap="round" stroke-linejoin="round">
      <rect x="5" y="11" width="14" height="10" rx="2" />
      <path d="M8 11V7a4 4 0 0 1 8 0v4" />
    </symbol>

    <symbol id="icon-users" viewBox="0 0 24 24" fill="none" stroke="currentColor" stroke-width="1.75" stroke-linecap="round" stroke-linejoin="round">
      <circle cx="9" cy="8" r="3" />
      <path d="M3.5 20c0-3 2.5-5.5 5.5-5.5s5.5 2.5 5.5 5.5" />
      <circle cx="17" cy="9" r="2.5" />
      <path d="M14.8 20c.2-2.5 1.3-4 3.3-4.5" />
    </symbol>

    <symbol id="icon-apple" viewBox="0 0 384 512" fill="currentColor" stroke="none">
      <path d="M318.7 268.7c-.2-36.7 16.4-64.4 50-84.8-18.8-26.9-47.2-41.7-84.7-44.6-35.5-2.8-74.3 20.7-88.5 20.7-15 0-49.4-19.7-76.4-19.7C63.3 141 0 184.5 0 273.5c0 26.3 4.8 53.5 14.4 81.6 12.8 37.4 59 129.1 107.2 127.6 25.2-.6 43-17.9 75.8-17.9 31.8 0 48.3 17.9 76.4 17.9 48.6-.7 90.4-84.2 102.6-121.7-65.2-30.7-57.7-90-57.7-92.3zm-56.6-164.2c27.3-32.4 24.8-61.9 24-72.5-24.1 1.4-52 16.4-67.9 34.9-17.5 19.8-27.8 44.3-25.6 71.9 26.1 2 49.9-11.4 69.5-34.3z" />
    </symbol>

    <symbol id="icon-qr" viewBox="0 0 24 24" fill="none" stroke="currentColor" stroke-width="1.75" stroke-linecap="round" stroke-linejoin="round">
      <rect x="3" y="3" width="7" height="7" rx="1" />
      <rect x="14" y="3" width="7" height="7" rx="1" />
      <rect x="3" y="14" width="7" height="7" rx="1" />
      <line x1="14" y1="14" x2="14" y2="21" />
      <line x1="17.5" y1="14" x2="17.5" y2="21" />
      <line x1="21" y1="14" x2="21" y2="17.5" />
      <line x1="21" y1="21" x2="21" y2="21" />
    </symbol>
  </defs>
</svg>
