<?xml version="1.0" encoding="utf-8"?><!-- Uploaded to: SVG Repo, www.svgrepo.com, Generator: SVG Repo Mixer Tools -->
<svg width="800px" height="800px" viewBox="0 0 24 24" fill="none" xmlns="http://www.w3.org/2000/svg">
<rect x="4" y="3" width="16" height="18" rx="1" stroke="#200E32" stroke-width="2" stroke-linecap="round"/>
<path d="M9 17H15" stroke="#200E32" stroke-width="2" stroke-linecap="round" stroke-linejoin="round"/>
<circle cx="12" cy="10" r="4.25" stroke="#200E32" stroke-width="1.5" stroke-linecap="round" stroke-linejoin="round"/>
<path d="M13.25 10C13.25 11.3097 13.0363 12.4609 12.7179 13.257C12.5578 13.6571 12.386 13.9306 12.2336 14.0917C12.0837 14.2502 12.0046 14.25 12.0001 14.25H12H11.9999C11.9954 14.25 11.9163 14.2502 11.7664 14.0917C11.614 13.9306 11.4422 13.6571 11.2821 13.257C10.9637 12.4609 10.75 11.3097 10.75 10C10.75 8.69028 10.9637 7.53908 11.2821 6.74301C11.4422 6.34289 11.614 6.06943 11.7664 5.90826C11.9163 5.7498 11.9954 5.74999 11.9999 5.75L12 5.75L12.0001 5.75C12.0046 5.74999 12.0837 5.7498 12.2336 5.90826C12.386 6.06943 12.5578 6.34289 12.7179 6.74301C13.0363 7.53908 13.25 8.69028 13.25 10Z" stroke="#200E32" stroke-width="1.5" stroke-linecap="round" stroke-linejoin="round"/>
<path d="M8 10H16" stroke="#200E32" stroke-width="1.5" stroke-linecap="round" stroke-linejoin="round"/>
</svg>